<svg xmlns="http://www.w3.org/2000/svg" width="335" height="131" viewBox="0 0 335 131">
  <g id="Group_14428" data-name="Group 14428" transform="translate(-20 -163)">
    <path id="Union_1" data-name="Union 1" d="M-1489,111h-132a16,16,0,0,1-16-16V16a16,16,0,0,1,16-16h303a16,16,0,0,1,16,16V95a16,16,0,0,1-16,16h-131a20,20,0,0,1-20,20A20,20,0,0,1-1489,111Z" transform="translate(1657 163)" fill="#00b6f0"/>
    <path id="Subtraction_2" data-name="Subtraction 2" d="M18537.5,3015c-.146,0-.307,0-.5-.006V2968c.164,0,.338-.006.5-.006a23.5,23.5,0,0,1,0,47Z" transform="translate(-18517 -2775)" fill="#fff" opacity="0.4"/>
    <path id="Subtraction_3" data-name="Subtraction 3" d="M.5,0C.352,0,.191,0,0,.006V47C.164,47,.338,47,.5,47a23.347,23.347,0,0,0,16.617-6.884,23.5,23.5,0,0,0,0-33.234A23.347,23.347,0,0,0,.5,0Z" transform="translate(355 240) rotate(180)" fill="#fff" opacity="0.4"/>
    <path id="Subtraction_1" data-name="Subtraction 1" d="M-1609,55.995V9.005a23.362,23.362,0,0,1,16.28,7.043A23.366,23.366,0,0,1-1586,32.5a23.366,23.366,0,0,1-6.72,16.452A23.363,23.363,0,0,1-1609,55.995Z" transform="translate(1658 184)" fill="#fff" opacity="0.4"/>
  </g>
</svg>
