<svg xmlns="http://www.w3.org/2000/svg" width="40" height="40" viewBox="0 0 40 40">
  <g id="Group_14429" data-name="Group 14429" transform="translate(-171 -743)">
    <circle id="Ellipse_59" data-name="Ellipse 59" cx="20" cy="20" r="20" transform="translate(171 743)" fill="#d1de43"/>
    <g id="Group_13994" data-name="Group 13994" transform="translate(85 11)">
      <path id="add" d="M10,0A10,10,0,1,0,20,10,10,10,0,0,0,10,0Zm3.333,10.833h-2.5v2.5a.833.833,0,0,1-1.667,0v-2.5h-2.5a.833.833,0,1,1,0-1.667h2.5v-2.5a.833.833,0,1,1,1.667,0v2.5h2.5a.833.833,0,0,1,0,1.667Z" transform="translate(96 742)" fill="#fff"/>
    </g>
  </g>
</svg>
