<svg xmlns="http://www.w3.org/2000/svg" xmlns:xlink="http://www.w3.org/1999/xlink" width="375" height="812" viewBox="0 0 375 812">
  <defs>
    <linearGradient id="linear-gradient" x1="0.116" y1="0.027" x2="1.04" y2="0.751" gradientUnits="objectBoundingBox">
      <stop offset="0" stop-color="#d6f5ff"/>
      <stop offset="1" stop-color="#fff"/>
    </linearGradient>
    <clipPath id="clip-Login-fil_6">
      <rect width="375" height="812"/>
    </clipPath>
  </defs>
  <g id="Login-fil_6" data-name="Login-fil – 6" clip-path="url(#clip-Login-fil_6)">
    <rect width="375" height="812" fill="#fff"/>
    <rect id="Rectangle_8310" data-name="Rectangle 8310" width="375" height="812" fill="url(#linear-gradient)"/>
    <g id="Group_13971" data-name="Group 13971" transform="translate(33 215)" opacity="0.5" style="isolation: isolate">
      <path id="Path_3" data-name="Path 3" d="M34.685,163.633c15.1-28.574,29.955-57.278,46.224-85.22,13.824-23.737,27.408-47.634,44.778-69.081a38.107,38.107,0,0,1,7.97-7.851c4-2.722,6.723-1.679,7.868,3.019,2.09,8.585.884,17.235-.424,25.693-9.522,61.682-27.156,121.23-48.11,179.881a6.65,6.65,0,0,1-.436.868c-1.548.953-2.42-.338-3.333-1.1-17.349-14.395-34.624-28.879-52.433-42.7A7.78,7.78,0,0,1,34.82,165a1.975,1.975,0,0,1-.134-1.365" transform="translate(106.435 0)" fill="#fff"/>
      <path id="Path_4" data-name="Path 4" d="M126.981,108.2c-8.744,14.436-17.292,28.993-27.6,42.423C82.4,172.77,62.98,192.18,38.106,205.536A50.509,50.509,0,0,1,25.916,210.4c-8.039,1.895-12.129-1.459-12.337-9.7-.179-7.1,1.6-13.841,3.647-20.523,7.371-24.108,18.021-46.921,28.04-69.978,7.949-18.3,16.1-36.515,24.169-54.768,1.5-.322,2.489.623,3.37,1.54a624.128,624.128,0,0,0,54.353,49.936,1.231,1.231,0,0,1-.175,1.292" transform="translate(41.706 170.235)" fill="#fff"/>
      <path id="Path_5" data-name="Path 5" d="M41.467,118.552c-.033-.3-.061-.595-.086-.9-.016-2.041,1.011-3.74,1.944-5.431C53.372,94.037,61.46,74.96,69.181,55.713c.6-1.491.994-3.141,2.815-3.708,5.949,4.017,11.05,9.053,16.289,13.885,24.023,22.169,49.015,43.29,72.121,66.445,6.556,6.572,12.887,13.368,17.887,21.228,7.839,12.325,4.722,18.518-9.783,18.889-20.034.509-38.943-4.779-57.29-12.248-23.521-9.579-44.79-23.041-64.983-38.283-1.552-1.173-3.178-2.249-4.771-3.37" transform="translate(127.221 159.886)" fill="#fff"/>
      <path id="Path_6" data-name="Path 6" d="M141.12,109.067a1.469,1.469,0,0,1,.012.774c.35,1.923-.729,3.439-1.5,5.02-8.108,16.762-17.088,33.1-24.658,50.135-.88,1.976-1.442,4.413-4.05,5.122C101.423,161.012,92.9,151,84.25,141.1,60.17,113.565,37.007,85.289,16.525,54.935,11.069,46.859,5.8,38.633,2.081,29.567.688,26.161-1.5,22.087,1.511,19.088c2.942-2.925,6.882-.342,10.027.982,15.536,6.523,29.4,15.988,43.246,25.371,29.079,19.708,57.1,40.866,84.682,62.607a16.966,16.966,0,0,0,1.654,1.019" transform="translate(0 54.567)" fill="#fff"/>
      <path id="Path_7" data-name="Path 7" d="M27.226,100.629Q40.971,72.747,54.74,44.879c.774-1.569,1.785-3.023,2.689-4.527,13,9.123,24.915,19.61,37.252,29.564,6.927,5.586,13.739,11.31,20.6,16.97l.232.945Q105.155,115,92.111,140.985c-2.139,4.294-4.136,8.719-7.216,12.5-8.434-5.57-15.735-12.533-23.391-19.056-12.024-10.247-22.633-21.957-34.07-32.811-.069-.33-.138-.66-.208-.986" transform="translate(83.703 124.06)" fill="#fff"/>
      <path id="Path_10" data-name="Path 10" d="M85.65,51.559c-.134,17.984-9.53,29.926-24.756,31.907-9.84,1.275-18.335-2.514-25.3-9.2-11.677-11.2-16.416-24.964-12.5-40.817C28.5,11.545,52.8,4.847,70.64,20.15a41.32,41.32,0,0,1,15.01,31.41" transform="translate(66.85 36.449)" fill="#fff"/>
    </g>
  </g>
</svg>
