<svg id="Group_13968" data-name="Group 13968" xmlns="http://www.w3.org/2000/svg" width="36.564" height="45" viewBox="0 0 36.564 45">
  <path id="Path_3" data-name="Path 3" d="M34.628,19.319c1.782-3.374,3.537-6.762,5.457-10.061A63.3,63.3,0,0,1,45.372,1.1a4.5,4.5,0,0,1,.941-.927c.472-.321.794-.2.929.356a7.719,7.719,0,0,1-.05,3.033A115.625,115.625,0,0,1,41.511,24.8a.785.785,0,0,1-.051.1c-.183.113-.286-.04-.393-.129-2.048-1.7-4.088-3.41-6.19-5.042a.918.918,0,0,1-.232-.253.233.233,0,0,1-.016-.161" transform="translate(-17.967 0)" fill="#00b5ef"/>
  <path id="Path_4" data-name="Path 4" d="M26.956,61.609A54.322,54.322,0,0,1,23.7,66.617,22.823,22.823,0,0,1,16.463,73.1a5.963,5.963,0,0,1-1.439.574c-.949.224-1.432-.172-1.457-1.145A7.6,7.6,0,0,1,14,70.107a78.558,78.558,0,0,1,3.31-8.262c.939-2.161,1.9-4.311,2.854-6.466a.42.42,0,0,1,.4.182,73.687,73.687,0,0,0,6.417,5.9.145.145,0,0,1-.021.152" transform="translate(-7.04 -28.735)" fill="#00b5ef"/>
  <path id="Path_5" data-name="Path 5" d="M41.391,59.862c0-.035-.007-.07-.01-.106a1.317,1.317,0,0,1,.229-.641,59.516,59.516,0,0,0,3.053-6.672c.071-.176.117-.371.332-.438a16.716,16.716,0,0,1,1.923,1.639c2.836,2.617,5.787,5.111,8.515,7.845A15.058,15.058,0,0,1,57.545,64c.926,1.455.558,2.186-1.155,2.23a16.746,16.746,0,0,1-6.764-1.446,34.223,34.223,0,0,1-7.672-4.52c-.183-.139-.375-.266-.563-.4" transform="translate(-21.475 -26.988)" fill="#d1de43"/>
  <path id="Path_6" data-name="Path 6" d="M16.661,28.53a.173.173,0,0,1,0,.091.95.95,0,0,1-.177.593c-.957,1.979-2.017,3.908-2.911,5.919-.1.233-.17.521-.478.6-1.122-1.075-2.129-2.258-3.15-3.425a103.577,103.577,0,0,1-8-10.173A16.8,16.8,0,0,1,.246,19.144c-.165-.4-.423-.883-.067-1.237s.812-.04,1.184.116a29.868,29.868,0,0,1,5.106,3c3.433,2.327,6.742,4.825,10,7.392a2,2,0,0,0,.2.12" transform="translate(0 -9.21)" fill="#d1de43"/>
  <path id="Path_7" data-name="Path 7" d="M27.226,47.468q1.623-3.292,3.248-6.582c.091-.185.211-.357.317-.534,1.535,1.077,2.942,2.315,4.4,3.49.818.659,1.622,1.335,2.432,2l.027.112q-1.223,3.207-2.763,6.276a7.655,7.655,0,0,1-.852,1.475,29.134,29.134,0,0,1-2.762-2.25c-1.42-1.21-2.672-2.592-4.022-3.874l-.025-.116" transform="translate(-14.129 -20.941)" fill="#73b765"/>
  <path id="Path_10" data-name="Path 10" d="M29.289,16.543c-.016,2.123-1.125,3.533-2.923,3.767a3.557,3.557,0,0,1-2.987-1.086A4.769,4.769,0,0,1,21.9,14.405c.638-2.587,3.508-3.377,5.614-1.571a4.878,4.878,0,0,1,1.772,3.708" transform="translate(-11.285 -6.152)" fill="#475eaa"/>
</svg>
