<svg id="Icons" xmlns="http://www.w3.org/2000/svg" width="24" height="24" viewBox="0 0 24 24">
  <path id="Vector" d="M0,0H24V24H0Z" fill="none"/>
  <path id="Vector-2" data-name="Vector" d="M10.819,0A11,11,0,0,1,21.638,9,11,11,0,0,1,0,9,11,11,0,0,1,10.819,0Zm0,16A9.005,9.005,0,0,0,19.6,9,9.005,9.005,0,0,0,2.042,9a9,9,0,0,0,8.777,7Zm0-2.5A4.5,4.5,0,1,1,14,12.182,4.5,4.5,0,0,1,10.819,13.5Zm0-2a2.5,2.5,0,1,0-1.768-.732A2.5,2.5,0,0,0,10.819,11.5Z" transform="translate(1.181 3)" fill="#102741"/>
</svg>
