<svg xmlns="http://www.w3.org/2000/svg" width="20.012" height="20" viewBox="0 0 20.012 20">
  <g id="Group_13995" data-name="Group 13995" transform="translate(-41 -741)">
    <g id="home" transform="translate(41 740.84)">
      <path id="Path_3226" data-name="Path 3226" d="M194.5,319.841a2.5,2.5,0,0,0-2.5,2.5v5h5v-5A2.5,2.5,0,0,0,194.5,319.841Z" transform="translate(-184.495 -307.186)" fill="#d1de43"/>
      <g id="Group_13990" data-name="Group 13990" transform="translate(0 0.16)">
        <path id="Path_3227" data-name="Path 3227" d="M14.176,15.157v5h3.335a2.5,2.5,0,0,0,2.5-2.5V10.053a1.668,1.668,0,0,0-.469-1.161L12.457,1.231a3.335,3.335,0,0,0-4.713-.186q-.1.089-.186.186L.484,8.889A1.668,1.668,0,0,0,0,10.065v7.593a2.5,2.5,0,0,0,2.5,2.5H5.837v-5a4.169,4.169,0,1,1,8.339,0Z" transform="translate(0 -0.16)" fill="#d1de43"/>
        <path id="Path_3228" data-name="Path 3228" d="M194.5,319.841a2.5,2.5,0,0,0-2.5,2.5v5h5v-5A2.5,2.5,0,0,0,194.5,319.841Z" transform="translate(-184.495 -307.346)" fill="#d1de43"/>
      </g>
    </g>
  </g>
</svg>
