<svg xmlns="http://www.w3.org/2000/svg" width="22.434" height="22.221" viewBox="0 0 22.434 22.221">
  <g id="layers" transform="translate(0 -0.227)">
    <path id="Path_3231" data-name="Path 3231" d="M21.016,10.966l-9.8,5.881-9.8-5.881a.935.935,0,0,0-.962,1.6l10.282,6.169a.935.935,0,0,0,.963,0L21.98,12.569a.935.935,0,1,0-.962-1.6Z" transform="translate(0 -0.693)" fill="#484b49"/>
    <path id="Path_3232" data-name="Path 3232" d="M21.016,15.534l-9.8,5.88-9.8-5.88a.935.935,0,0,0-.962,1.6l10.282,6.169a.935.935,0,0,0,.963,0L21.98,17.137a.935.935,0,1,0-.962-1.6Z" transform="translate(0 -0.991)" fill="#484b49"/>
    <path id="Path_3233" data-name="Path 3233" d="M.453,7.826l9.332,5.6a2.776,2.776,0,0,0,2.862,0l9.332-5.6a.935.935,0,0,0,0-1.6L12.647.624a2.779,2.779,0,0,0-2.862,0L.453,6.224a.935.935,0,0,0,0,1.6Z" fill="#484b49"/>
  </g>
</svg>
