<svg xmlns="http://www.w3.org/2000/svg" width="19.517" height="18.682" viewBox="0 0 19.517 18.682">
  <path id="list-check" d="M3.659,5.7a2.827,2.827,0,0,1-2.013-.833l-1.24-1.1A1.221,1.221,0,0,1,2.033,1.94L3.321,3.09a.475.475,0,0,0,.338.168.407.407,0,0,0,.287-.119L6.884.342A1.22,1.22,0,0,1,8.566,2.108L5.65,4.884A2.8,2.8,0,0,1,3.659,5.7ZM19.516,2.851a1.22,1.22,0,0,0-1.22-1.22H11.791a1.22,1.22,0,0,0,0,2.439H18.3a1.22,1.22,0,0,0,1.22-1.22ZM5.65,11.389,8.566,8.613A1.22,1.22,0,0,0,6.884,6.847l-2.938,2.8a.407.407,0,0,1-.575,0L2.082,8.354A1.22,1.22,0,1,0,.357,10.08l1.29,1.289a2.846,2.846,0,0,0,4,.02ZM19.516,9.356a1.22,1.22,0,0,0-1.22-1.22H11.791a1.22,1.22,0,0,0,0,2.439H18.3A1.22,1.22,0,0,0,19.516,9.356ZM5.65,17.894l2.916-2.776a1.22,1.22,0,0,0-1.682-1.766l-2.938,2.8a.407.407,0,0,1-.287.119.475.475,0,0,1-.338-.168l-1.288-1.15A1.221,1.221,0,0,0,.406,16.772l1.238,1.1A2.846,2.846,0,0,0,5.65,17.894Zm13.866-2.033a1.22,1.22,0,0,0-1.22-1.22H11.791a1.22,1.22,0,0,0,0,2.439H18.3A1.22,1.22,0,0,0,19.516,15.862Z" transform="translate(0.001 -0.026)" fill="#484b49"/>
</svg>
