<svg id="Group_13968" data-name="Group 13968" xmlns="http://www.w3.org/2000/svg" width="57.001" height="70.151" viewBox="0 0 57.001 70.151">
  <path id="Path_3" data-name="Path 3" d="M34.632,30.116c2.778-5.259,5.513-10.542,8.508-15.685A98.674,98.674,0,0,1,51.381,1.717,7.014,7.014,0,0,1,52.848.272c.736-.5,1.237-.309,1.448.556a12.033,12.033,0,0,1-.078,4.729,180.25,180.25,0,0,1-8.855,33.107,1.224,1.224,0,0,1-.08.16c-.285.175-.445-.062-.613-.2-3.193-2.649-6.373-5.315-9.65-7.86a1.432,1.432,0,0,1-.362-.394.364.364,0,0,1-.025-.251" transform="translate(-8.659 0)" fill="#00b5ef"/>
  <path id="Path_4" data-name="Path 4" d="M34.44,65.095A84.683,84.683,0,0,1,29.361,72.9,35.58,35.58,0,0,1,18.083,83.009a9.3,9.3,0,0,1-2.244.9c-1.48.349-2.232-.268-2.271-1.785a11.853,11.853,0,0,1,.671-3.777A122.466,122.466,0,0,1,19.4,65.463c1.463-3.369,2.964-6.721,4.448-10.08a.655.655,0,0,1,.62.283,114.87,114.87,0,0,0,10,9.191.227.227,0,0,1-.032.238" transform="translate(-3.393 -13.848)" fill="#00b5ef"/>
  <path id="Path_5" data-name="Path 5" d="M41.4,64.253c-.006-.055-.011-.109-.016-.165a2.052,2.052,0,0,1,.358-1,92.782,92.782,0,0,0,4.759-10.4c.11-.274.183-.578.518-.682a26.06,26.06,0,0,1,3,2.556c4.421,4.08,9.021,7.968,13.274,12.229A23.474,23.474,0,0,1,66.58,70.7c1.443,2.268.869,3.408-1.8,3.477a26.1,26.1,0,0,1-10.544-2.254,53.35,53.35,0,0,1-11.96-7.046c-.286-.216-.585-.414-.878-.62" transform="translate(-10.35 -13.006)" fill="#d1de43"/>
  <path id="Path_6" data-name="Path 6" d="M25.973,34.555a.27.27,0,0,1,0,.142,1.482,1.482,0,0,1-.275.924c-1.492,3.085-3.145,6.093-4.538,9.227-.162.364-.265.812-.745.943-1.75-1.676-3.318-3.519-4.91-5.34A161.468,161.468,0,0,1,3.042,24.592,26.185,26.185,0,0,1,.383,19.923c-.256-.627-.659-1.377-.1-1.929s1.267-.063,1.845.181a46.562,46.562,0,0,1,7.959,4.67c5.352,3.627,10.51,7.521,15.586,11.523a3.123,3.123,0,0,0,.3.187" transform="translate(0 -4.439)" fill="#d1de43"/>
  <path id="Path_7" data-name="Path 7" d="M27.226,51.446q2.53-5.132,5.064-10.261c.142-.289.328-.556.495-.833,2.392,1.679,4.586,3.609,6.856,5.441,1.275,1.028,2.529,2.082,3.791,3.123l.043.174q-1.907,5-4.307,9.783a11.933,11.933,0,0,1-1.328,2.3,45.417,45.417,0,0,1-4.305-3.507c-2.213-1.886-4.166-4.041-6.271-6.039l-.038-.181" transform="translate(-6.81 -10.092)" fill="#73b765"/>
  <path id="Path_10" data-name="Path 10" d="M33.506,19.163c-.025,3.31-1.754,5.508-4.556,5.872a5.545,5.545,0,0,1-4.656-1.693,7.435,7.435,0,0,1-2.3-7.512c1-4.032,5.468-5.265,8.751-2.448a7.605,7.605,0,0,1,2.763,5.781" transform="translate(-5.439 -2.965)" fill="#475eaa"/>
</svg>
