<svg xmlns="http://www.w3.org/2000/svg" width="19.822" height="20" viewBox="0 0 19.822 20">
  <g id="Group_13992" data-name="Group 13992" transform="translate(-238.987 -742)">
    <path id="settings" d="M17.518,10a7.619,7.619,0,0,0-.125-1.371l2.536-1.462-2.5-4.333L14.892,4.3a7.5,7.5,0,0,0-2.374-1.372V0h-5V2.928A7.5,7.5,0,0,0,5.144,4.3L2.607,2.833.107,7.167,2.643,8.629a7.583,7.583,0,0,0,0,2.742L.107,12.833l2.5,4.333L5.144,15.7a7.5,7.5,0,0,0,2.374,1.371V20h5V17.072A7.5,7.5,0,0,0,14.892,15.7l2.537,1.466,2.5-4.333-2.536-1.463A7.619,7.619,0,0,0,17.518,10Zm-5,0a2.5,2.5,0,1,1-2.5-2.5A2.5,2.5,0,0,1,12.518,10Z" transform="translate(238.88 742)" fill="#d1de43"/>
  </g>
</svg>
